<svg width="0" height="0" class="hidden">
  <symbol viewBox="0 0 512.006 512.006" xmlns="http://www.w3.org/2000/svg" id="peace">
    <path d="M366.003 140.006a44.72 44.72 0 0 0-19.886 4.646c-7.443-14.61-22.624-24.646-40.114-24.646-2.609 0-5.163.236-7.652.664l11.977-67.925c4.301-24.392-12.08-47.742-36.516-52.051-11.836-2.085-23.779.56-33.625 7.455-9.846 6.894-16.418 17.21-18.505 29.048l-12.555 71.201-8.456-68.874c-1.465-11.93-7.488-22.576-16.96-29.976-9.471-7.399-21.256-10.673-33.19-9.204-24.627 3.024-42.208 25.483-39.19 50.065l21.457 174.752c-18.755 8.771-31.785 27.809-31.785 49.844v56.752a102.629 102.629 0 0 0 60 93.45v71.798c0 8.284 6.716 15 15 15h180c8.284 0 15-6.716 15-15v-73.292c24.89-15.985 40-43.338 40-73.433V185.006c0-24.813-20.187-45-45-45zm0 30c8.271 0 15 6.729 15 15v40c0 8.271-6.729 15-15 15s-15-6.729-15-15v-40c0-8.271 6.729-15 15-15zm-45-5v60c0 8.271-6.729 15-15 15s-15-6.729-15-15v-60c0-8.271 6.729-15 15-15s15 6.729 15 15zm-69.777-122.6a14.902 14.902 0 0 1 6.168-9.683 14.9 14.9 0 0 1 11.208-2.484c3.96.698 7.407 2.883 9.705 6.151a14.783 14.783 0 0 1 2.476 11.146l-30.411 172.47H219.91l1.307-7.414.026-.145zM154.179 30.12a14.9 14.9 0 0 1 11.062 3.068 14.903 14.903 0 0 1 5.653 9.992l20.414 166.268-1.862 10.557H162.38L141.108 46.754c-1.003-8.163 4.861-15.625 13.071-16.634zM349.293 401.6a14.998 14.998 0 0 0-8.29 13.415v66.991h-150v-66.991c0-6.456-4.13-12.188-10.255-14.229a72.673 72.673 0 0 1-49.745-69.027v-56.752c0-13.785 11.215-25 25-25h104.644c-2.434 16.939-17.042 30-34.644 30h-30c-8.284 0-15 6.716-15 15s6.716 15 15 15c35.841 0 65 29.159 65 65 0 8.284 6.716 15 15 15s15-6.716 15-15c0-29.219-13.264-55.396-34.082-72.836 14.236-7.731 25.262-20.632 30.58-36.16a44.717 44.717 0 0 0 18.502 3.996c11.517 0 22.032-4.354 30-11.495 7.968 7.142 18.483 11.495 30 11.495a44.79 44.79 0 0 0 15-2.58v82.855c0 21.87-12.151 41.534-31.71 51.318z"></path>
  </symbol>
</svg>